<svg xmlns="http://www.w3.org/2000/svg" xmlns:xlink="http://www.w3.org/1999/xlink" width="1080" zoomAndPan="magnify" viewBox="0 0 810 809.999993" height="1080" preserveAspectRatio="xMidYMid meet" version="1.0"><defs><g/></defs><g fill="#0097b2" fill-opacity="1"><g transform="translate(353.982086, 591.609411)"><g><path d="M 27.40625 -411.1875 L 115.875 -411.1875 C 161.976562 -411.1875 196.96875 -402.359375 220.84375 -384.703125 C 244.726562 -367.046875 256.671875 -342.019531 256.671875 -309.625 C 256.671875 -292.1875 252.515625 -276.613281 244.203125 -262.90625 C 235.898438 -249.195312 225 -237.671875 211.5 -228.328125 C 198.007812 -218.984375 182.851562 -211.816406 166.03125 -206.828125 C 149.207031 -201.847656 132.488281 -199.359375 115.875 -199.359375 L 92.203125 -199.359375 L 92.203125 -40.5 C 92.203125 -37.175781 92.617188 -33.539062 93.453125 -29.59375 C 94.285156 -25.644531 95.632812 -22.007812 97.5 -18.6875 C 99.363281 -15.363281 101.4375 -12.457031 103.71875 -9.96875 C 106.007812 -7.476562 108.816406 -6.234375 112.140625 -6.234375 L 115.25 -6.234375 L 115.25 0 L 27.40625 0 L 27.40625 -6.234375 L 30.53125 -6.234375 C 33.4375 -6.234375 36.132812 -7.476562 38.625 -9.96875 C 41.113281 -12.457031 43.1875 -15.363281 44.84375 -18.6875 C 46.507812 -22.007812 47.757812 -25.644531 48.59375 -29.59375 C 49.425781 -33.539062 49.84375 -37.175781 49.84375 -40.5 L 49.84375 -372.546875 C 49.84375 -378.367188 48.179688 -385.015625 44.859375 -392.484375 C 41.535156 -399.960938 36.757812 -404.117188 30.53125 -404.953125 L 27.40625 -404.953125 Z M 92.203125 -389.375 L 92.203125 -221.171875 L 110.890625 -221.171875 C 127.503906 -221.171875 142.351562 -223.453125 155.4375 -228.015625 C 168.519531 -232.585938 179.421875 -238.609375 188.140625 -246.078125 C 196.867188 -253.554688 203.515625 -262.070312 208.078125 -271.625 C 212.648438 -281.175781 214.9375 -290.9375 214.9375 -300.90625 C 214.9375 -312.945312 212.960938 -324.265625 209.015625 -334.859375 C 205.066406 -345.453125 198.628906 -354.796875 189.703125 -362.890625 C 180.773438 -370.992188 169.039062 -377.429688 154.5 -382.203125 C 139.96875 -386.984375 122.109375 -389.375 100.921875 -389.375 Z M 92.203125 -389.375 "/></g></g></g><g fill="#0097b2" fill-opacity="1"><g transform="translate(174.417211, 587.628279)"><g><path d="M 77.4375 -381.0625 C 77.4375 -378.625 78.046875 -375.578125 79.265625 -371.921875 L 186.5625 -82.921875 L 293.875 -374.96875 C 294.28125 -375.78125 294.6875 -377 295.09375 -378.625 C 295.5 -380.25 295.703125 -381.46875 295.703125 -382.28125 C 295.703125 -387.15625 293.769531 -390.710938 289.90625 -392.953125 C 286.050781 -395.191406 282.5 -396.3125 279.25 -396.3125 L 279.25 -402.40625 L 345.703125 -402.40625 L 345.703125 -396.3125 C 339.609375 -396.3125 334.019531 -394.679688 328.9375 -391.421875 C 323.851562 -388.171875 319.890625 -382.6875 317.046875 -374.96875 L 177.421875 7.3125 L 34.75 -373.140625 C 32.3125 -379.234375 28.753906 -384.515625 24.078125 -388.984375 C 19.410156 -393.460938 13.617188 -395.90625 6.703125 -396.3125 L 6.703125 -402.40625 L 93.28125 -402.40625 L 93.28125 -396.3125 C 89.625 -396.3125 86.066406 -394.988281 82.609375 -392.34375 C 79.160156 -389.695312 77.4375 -385.9375 77.4375 -381.0625 Z M 77.4375 -381.0625 "/></g></g></g></svg>
